<?xml version="1.0" encoding="iso-8859-1"?>
<!-- Generator: Adobe Illustrator 19.0.0, SVG Export Plug-In . SVG Version: 6.00 Build 0)  -->
<svg version="1.1" id="Capa_1" xmlns="http://www.w3.org/2000/svg" xmlns:xlink="http://www.w3.org/1999/xlink" x="0px" y="0px"
	 viewBox="0 0 480 480" style="enable-background:new 0 0 480 480;" xml:space="preserve">
<path style="fill:#919191;" d="M256.669,423.213c6.687-88.578,65.822-165.377,151.12-193.81l15.493-5.164
	c-1.249-14.705-4.225-28.909-8.728-42.424l-67.732,22.577c-22.402,7.467-46.786,6.29-68.365-3.3l-0.021-0.009
	c-24.471-10.876-52.403-10.876-76.874,0l-3.028,1.346c-19.759,8.782-41.93,10.533-62.822,4.961l-72.247-19.266
	c-3.405,11.605-5.692,23.682-6.748,36.115l15.493,5.164c85.298,28.433,144.433,105.232,151.12,193.81H256.669z"/>
<circle style="fill:#5599E8;" cx="240" cy="264" r="40"/>
<path style="fill:#555555;" d="M240,0C107.664,0,0,107.664,0,240s107.664,240,240,240s240-107.664,240-240S372.336,0,240,0z
	 M240,416c-97.047,0-176-78.953-176-176S142.953,64,240,64s176,78.953,176,176S337.047,416,240,416z"/>
<g>
</g>
<g>
</g>
<g>
</g>
<g>
</g>
<g>
</g>
<g>
</g>
<g>
</g>
<g>
</g>
<g>
</g>
<g>
</g>
<g>
</g>
<g>
</g>
<g>
</g>
<g>
</g>
<g>
</g>
</svg>
